<svg width="512" height="512" viewBox="0 0 512 512" fill="none" xmlns="http://www.w3.org/2000/svg">
  <rect width="512" height="512" rx="64" fill="#2563eb"/>
  <path d="M128 192h256v32H128v-32z" fill="white"/>
  <path d="M128 256h256v32H128v-32z" fill="white"/>
  <path d="M128 320h192v32H128v-32z" fill="white"/>
  <circle cx="160" cy="208" r="8" fill="#60a5fa"/>
  <circle cx="160" cy="272" r="8" fill="#60a5fa"/>
  <circle cx="160" cy="336" r="8" fill="#60a5fa"/>
  <path d="M256 128c-17.673 0-32 14.327-32 32s14.327 32 32 32 32-14.327 32-32-14.327-32-32-32zm0 48c-8.837 0-16-7.163-16-16s7.163-16 16-16 16 7.163 16 16-7.163 16-16 16z" fill="white"/>
  <path d="M320 128c-17.673 0-32 14.327-32 32s14.327 32 32 32 32-14.327 32-32-14.327-32-32-32zm0 48c-8.837 0-16-7.163-16-16s7.163-16 16-16 16 7.163 16 16-7.163 16-16 16z" fill="white"/>
  <path d="M288 144h16v16h-16v-16z" fill="#60a5fa"/>
</svg> 